<?xml version="1.0" encoding="UTF-8"?>
<svg id="_レイヤー_2" data-name="レイヤー 2" xmlns="http://www.w3.org/2000/svg" viewBox="0 0 954.03 329.95">
  <defs>
    <style>
      .cls-1 {
        fill: #fcee21;
        stroke-width: 0px;
      }
    </style>
  </defs>
  <g id="_レイヤー_1-2" data-name="レイヤー 1">
    <g>
      <path class="cls-1" d="M329.95,206.67c.6,0,1.06.38,1.36,1.13.3.76.3,1.59,0,2.49-12.39,33.84-27.27,62.25-44.64,85.21-17.38,22.97-39.2,34.45-65.49,34.45-12.69,0-23.79-2.8-33.31-8.38-9.52-5.59-20.32-13.82-32.41-24.7-10.28-9.06-18.81-15.71-25.61-19.94-6.8-4.23-14.28-6.35-22.43-6.35-16.02,0-31.43,6.35-46.23,19.04-9.67,8.77-17.22,18.74-22.66,29.91-.3,1.2-1.06,1.81-2.27,1.81-.61,0-1.13-.3-1.59-.91-.45-.61-.53-1.36-.23-2.27,7.55-15.41,18.5-28.55,32.86-39.43,14.35-10.88,33.77-22.96,58.24-36.26,3.92-2.11,9.52-5.21,16.77-9.29,7.25-4.08,13.44-7.78,18.58-11.1L74.33,66.62c-9.37-16.92-17.3-29.69-23.79-38.3-6.5-8.61-13.45-14.96-20.85-19.04C22.28,5.21,13.14,3.17,2.27,3.17.76,3.17,0,2.65,0,1.59S.76,0,2.27,0c12.99,0,23.72.3,32.18.91,3.02.3,6.95.45,11.78.45h38.52c5.44,0,9.67-.15,12.69-.45,9.67-.6,21.6-.91,35.8-.91,1.51,0,2.27.53,2.27,1.59s-.76,1.59-2.27,1.59c-10.58.3-18.29,1.89-23.11,4.76-4.84,2.88-7.25,7.48-7.25,13.82,0,9.67,5.59,24.63,16.77,44.87l72.52,129.62c16.32-17.82,32.02-40.41,47.14-67.76,15.11-27.34,24.93-52.35,29.46-75.01.6-4.23.91-7.25.91-9.06,0-12.08-4.91-21.9-14.73-29.46-9.82-7.55-23.79-11.48-41.92-11.78-1.52,0-2.27-.52-2.27-1.59s.75-1.59,2.27-1.59c16.92,0,33.54.3,49.85.91,4.53.3,9.67.45,15.41.45,4.53,0,8.16-.15,10.88-.45,9.67-.6,19.33-.91,29.01-.91.91,0,1.36.53,1.36,1.59s-.45,1.59-1.36,1.59c-12.39.3-22.29,5.21-29.69,14.73-7.41,9.52-12.46,21.07-15.18,34.67-3.93,20.25-11.71,41.92-23.34,65.04-11.64,23.11-24.7,44.04-39.2,62.77-14.5,18.74-27.5,32.03-38.98,39.88-9.06,6.34-24.02,15.11-44.87,26.29-20.55,11.49-34.45,19.64-41.7,24.47,7.55-3.02,14.96-4.53,22.21-4.53,6.35,0,12.69.84,19.04,2.49,6.34,1.66,14.8,4.31,25.38,7.93,14.8,4.84,27.57,8.54,38.3,11.1,10.72,2.57,23.19,3.85,37.39,3.85,17.52,0,35.58-5.51,54.16-16.54,18.58-11.03,33.91-33.16,46-66.4.3-1.51,1.06-2.27,2.27-2.27Z"/>
      <path class="cls-1" d="M368.24,310.23c-17.38-10.12-31.27-23.87-41.7-41.24-10.42-17.37-15.64-36.18-15.64-56.43,0-24.17,6.04-46.15,18.13-65.94,12.08-19.79,28.48-35.35,49.17-46.68,20.69-11.33,43.28-17,67.76-17,21.15,0,40.18,5.37,57.11,16.09,16.92,10.73,30.21,25.08,39.88,43.06,9.67,17.98,14.5,37.24,14.5,57.79,0,23.87-5.67,45.4-17,64.58-11.33,19.19-27.04,34.15-47.13,44.87-20.1,10.72-43.13,16.09-69.12,16.09-19.94,0-38.6-5.06-55.97-15.18ZM493.56,303.43c10.88-7.1,19.26-16.77,25.15-29.01,5.89-12.24,8.84-25.61,8.84-40.11,0-21.15-5.06-42.38-15.18-63.68-10.13-21.3-24.02-38.9-41.7-52.8-17.68-13.89-37.39-20.85-59.15-20.85-13.6,0-25.69,3.63-36.26,10.88-10.58,7.25-18.89,17.07-24.93,29.46-6.05,12.39-9.06,26.14-9.06,41.24,0,20.85,5.44,41.77,16.32,62.77,10.88,21,25.22,38.38,43.06,52.12,17.82,13.75,36.56,20.62,56.2,20.62,13.6,0,25.83-3.55,36.71-10.65Z"/>
      <path class="cls-1" d="M658.08,87.47c1.2,0,1.88.38,2.04,1.13.15.76-.08,1.44-.68,2.04-16.62,9.67-27.5,21.68-32.63,36.03-5.14,14.35-7.7,32.41-7.7,54.16l.45,87.93c.3,13.6,1.05,23.5,2.27,29.69,1.2,6.2,4.31,10.73,9.29,13.6,4.99,2.88,13.07,4.3,24.25,4.3,1.51,0,2.27.53,2.27,1.59s-.76,1.59-2.27,1.59c-10.58.3-19.94.15-28.1-.45-2.12-.3-5.29-.45-9.52-.45h-31.27c-4.53,0-8.01.15-10.42.45-7.86.6-16.92.91-27.19.91-1.21,0-1.81-.53-1.81-1.59s.6-1.59,1.81-1.59c11.17,0,19.26-1.51,24.25-4.53,4.99-3.02,8.08-7.63,9.29-13.82,1.2-6.19,1.81-16.09,1.81-29.69v-91.55c0-13.6,3.55-27.12,10.65-40.56,7.1-13.44,19.26-25.9,36.48-37.39-17.53,6.95-33.69,15.34-48.5,25.15-14.81,9.82-25.54,18.51-32.18,26.06-.3.91-1.06,1.36-2.27,1.36-.91,0-1.52-.45-1.81-1.36-.3-.91,0-1.81.91-2.72,9.67-11.48,25.08-23.11,46.23-34.9,21.15-11.78,42.15-20.24,63-25.38h1.36ZM596.44,39.66c-4.53-4.38-6.8-9.89-6.8-16.54s2.19-11.78,6.57-16.32c4.38-4.53,9.89-6.8,16.54-6.8s12.24,2.2,16.77,6.57c4.53,4.38,6.8,9.9,6.8,16.54s-2.12,12.17-6.34,16.54c-4.23,4.38-9.97,6.57-17.22,6.57-6.34,0-11.78-2.19-16.32-6.57Z"/>
      <path class="cls-1" d="M954.03,318.39c0,1.05-.76,1.59-2.27,1.59-10.28,0-19.34-.3-27.19-.91-2.42-.3-5.89-.45-10.42-.45h-31.27c-4.53,0-8.01.15-10.42.45-7.86.6-16.93.91-27.19.91-1.21,0-1.81-.53-1.81-1.59s.6-1.59,1.81-1.59c12.39-.3,20.85-2.19,25.38-5.67,4.53-3.47,6.8-9.44,6.8-17.9,0-3.32-.91-11.33-2.72-24.02l-14.05-88.38c-5.14-31.42-11.33-53.03-18.58-64.81-7.25-11.78-17.07-17.68-29.46-17.68-14.5,0-28.03,7.86-40.56,23.57-12.54,15.71-23.27,37.7-32.18,65.94-8.92,28.25-15.18,60.66-18.81,97.22.6,11.78,3.17,19.94,7.7,24.47s13.6,6.95,27.19,7.25c1.51,0,2.27.53,2.27,1.59s-.76,1.59-2.27,1.59c-10.28,0-19.34-.3-27.19-.91-2.42-.3-5.89-.45-10.42-.45h-30.82c-4.53,0-8.01.15-10.42.45-7.86.6-16.93.91-27.19.91-1.21,0-1.81-.53-1.81-1.59s.6-1.59,1.81-1.59c11.17,0,19.26-1.51,24.25-4.53,4.99-3.02,8.08-7.63,9.29-13.82,1.2-6.19,1.81-16.09,1.81-29.69v-105.6c0-17.52-2.34-30.89-7.03-40.11-4.69-9.21-12.46-13.82-23.34-13.82-.61-.3-.91-.91-.91-1.81s.3-1.51.91-1.81c11.78-2.11,23.72-4.99,35.8-8.61,12.08-3.63,21.3-7.25,27.65-10.88.91-.91,1.81-.91,2.72,0l-.45,77.96-7.25,127.36h2.27c5.13-47.14,13.21-85.89,24.25-116.25,11.03-30.37,23.87-52.57,38.52-66.62,14.65-14.05,30.14-21.08,46.46-21.08s28.25,3.63,37.62,10.88c9.36,7.25,16.69,17.9,21.98,31.95,5.28,14.05,9.75,33.16,13.37,57.33l12.69,81.58c2.11,14.21,4.15,24.18,6.12,29.91,1.96,5.74,5.51,10.13,10.65,13.14,5.13,3.02,13.29,4.53,24.47,4.53,1.51,0,2.27.53,2.27,1.59Z"/>
    </g>
  </g>
</svg>